<?xml version="1.0" encoding="UTF-8"?>
<svg version="1.1" xmlns="http://www.w3.org/2000/svg" width="417" height="382">
<path d="M0 0 C0.96679688 0.16242188 1.93359375 0.32484375 2.9296875 0.4921875 C7.33408241 1.11948683 11.68301195 1.14709944 16.125 1.125 C16.91003906 1.12886719 17.69507813 1.13273437 18.50390625 1.13671875 C22.50424159 1.12997282 26.07722564 0.81828573 30 0 C45.91816919 -0.99285104 56.40649861 1.64014329 69 12 C70.8125 13.62109375 70.8125 13.62109375 72 15 C72 15.66 72 16.32 72 17 C69.85494484 15.93490333 67.72085363 14.85429921 65.59765625 13.74609375 C64.76105469 13.31425781 63.92445313 12.88242188 63.0625 12.4375 C62.22847656 12.00308594 61.39445312 11.56867188 60.53515625 11.12109375 C52.38174578 7.51550237 42.70012454 8.13413465 34.40625 10.96875 C22.33830325 16.14072718 15.3408682 25.22550717 10.12890625 36.984375 C5.99994315 48.01399268 7.34675763 59.38145347 12 70 C16.97964482 80.34915506 25.3680711 86.15407056 36 90 C46.16222928 92.57749596 56.66208278 91.75219774 66 87 C67.35771797 86.09817632 68.69441944 85.16327837 70 84.1875 C70.99 83.465625 71.98 82.74375 73 82 C76 83 76 83 77.24609375 85.14453125 C77.63925781 86.02496094 78.03242188 86.90539062 78.4375 87.8125 C80.19557463 91.53642172 81.75046146 94.35222786 85 97 C89.16149223 92.36290866 92.11962396 87.51561369 95 82 C97.29894595 83.14394666 99.58950305 84.30196012 101.875 85.47265625 C102.90625 85.99730469 103.9375 86.52195312 105 87.0625 C106.03125 87.58972656 107.0625 88.11695313 108.125 88.66015625 C116.77995539 92.69364769 127.73083828 92.18342448 136.6328125 89.03125 C146.6857321 84.65176027 154.69263932 78.41446146 159.4375 68.3125 C163.64931138 57.53248937 162.87873369 45.78039507 159 35 C153.91483238 23.90634164 146.48487771 15.50852637 135 11 C125.8585228 7.6142677 116.92630226 8.2782844 108 12 C105.78284555 13.24575902 103.68183856 14.56118182 101.59375 16.01171875 C100 17 100 17 98 17 C100.82117387 10.0935197 108.29926455 5.53957426 114.875 2.5625 C120.18711695 0.37688731 124.88396865 -0.19285981 130.625 -0.1875 C131.69633179 -0.1884668 131.69633179 -0.1884668 132.78930664 -0.18945312 C137.62885658 -0.14131473 142.06159417 0.44562197 146.78125 1.546875 C154.2902547 3.08040413 161.61144485 1.54676295 169 0 C167.43622501 3.32302186 165.78646849 5.56184007 163 8 C162.34 8 161.68 8 161 8 C161.50789062 8.79921875 162.01578125 9.5984375 162.5390625 10.421875 C176.01052464 31.91566853 182.87615996 52.39319429 178 78 C177.22663904 81.16178737 176.41072132 84.29263024 175.48828125 87.4140625 C174.76072421 91.2672046 175.2387761 93.80631266 177.34765625 97.11328125 C177.91355469 97.83902344 178.47945312 98.56476563 179.0625 99.3125 C191.92750725 117.07468079 199.57984839 139.35571749 196.53515625 161.359375 C194.4175211 172.03526345 189.64368949 181.15620711 181 188 C180.01 188.33 179.02 188.66 178 189 C178.03480469 188.23558594 178.06960938 187.47117187 178.10546875 186.68359375 C178.49407777 171.30577977 174.58665267 158.81834751 168.3125 145.0625 C167.69847024 143.68617041 167.08583315 142.30921864 166.47460938 140.93164062 C164.9989708 137.61380488 163.50497184 134.30465264 162 131 C163.6145836 139.59027456 165.38089212 147.97962641 168.0625 156.3125 C172.38166071 169.85747502 176.23102123 184.36606822 170 198 C169.34 198.33 168.68 198.66 168 199 C167.566875 198.071875 167.13375 197.14375 166.6875 196.1875 C164.17810719 191.44753581 162.14038948 189.59923228 157 188 C155.6114318 187.79137152 154.21894831 187.60772227 152.82421875 187.4453125 C151.56222656 187.29835938 150.30023438 187.15140625 149 187 C148.79431396 186.34104736 148.58862793 185.68209473 148.37670898 185.00317383 C141.19620186 162.2035209 132.5113746 138.50372128 110.05493164 126.70019531 C96.95288692 120.0472027 84.04878018 117.43255974 69.57421875 122.0390625 C50.46021587 129.17418345 38.51541869 143.51320074 29.88671875 161.54296875 C28.44268791 164.75965173 27.3401723 167.98537752 26.33203125 171.36328125 C22.17410376 185.24736938 22.17410376 185.24736938 18.2578125 187.7578125 C15.3125 188.4375 15.3125 188.4375 12.4609375 188.73046875 C9.74507637 188.78963832 9.74507637 188.78963832 7.4375 191.25 C5.7419975 194.49357 4.83767352 197.43988752 4 201 C3.34 201 2.68 201 2 201 C1.3490741 199.75264433 0.70448331 198.50198168 0.0625 197.25 C-0.29714844 196.55390625 -0.65679687 195.8578125 -1.02734375 195.140625 C-8.20430382 179.34554823 0.12561257 159.16875907 5.203125 143.95703125 C6.18760599 140.30383465 6.59600881 136.761158 7 133 C5.2179819 136.78650586 3.45149754 140.58006962 1.6875 144.375 C1.18798828 145.43589844 0.68847656 146.49679687 0.17382812 147.58984375 C-5.12203616 159.0232991 -8.17491711 169.23436705 -8.0625 181.9375 C-8.05798828 182.62134766 -8.05347656 183.30519531 -8.04882812 184.00976562 C-8.0371956 185.67321604 -8.01926694 187.3366205 -8 189 C-17.13245065 184.71333949 -21.82717494 177.56662766 -25.2734375 168.26171875 C-30.80994863 151.02709538 -26.97509556 131.55532978 -19.1875 115.75 C-11.20135628 100.23342329 -11.20135628 100.23342329 -5.66015625 94.63671875 C-3.59365555 92.02418449 -3.59365555 92.02418449 -4.66796875 88.625 C-5.16941406 87.42875 -5.67085937 86.2325 -6.1875 85 C-12.68914776 69.08039811 -11.41560761 51.12212135 -6 35 C-5.649375 33.94683594 -5.29875 32.89367187 -4.9375 31.80859375 C-1.88195324 23.67107859 2.86694048 16.93354445 8 10 C7.59007812 9.52949219 7.18015625 9.05898437 6.7578125 8.57421875 C6.21898437 7.95160156 5.68015625 7.32898438 5.125 6.6875 C4.59132812 6.07261719 4.05765625 5.45773438 3.5078125 4.82421875 C2 3 2 3 0 0 Z " fill="#190F2D" transform="translate(125,124)"/>
<path d="M0 0 C0.33 0 0.66 0 1 0 C1.02578125 1.30710938 1.0515625 2.61421875 1.078125 3.9609375 C1.77449155 28.67845659 8.53542511 49.28423748 20 71 C20.32845413 71.6242688 20.65690826 72.2485376 20.99531555 72.89172363 C25.07696381 80.57930119 29.42353157 87.8244301 34.69140625 94.76171875 C47.7499265 112.12924754 53.16767986 123.18001918 51.13525391 145.44726562 C50.89980515 151.63183298 52.05140708 157.51611849 53.25 163.5625 C53.4766333 164.72160889 53.7032666 165.88071777 53.93676758 167.07495117 C54.60327837 170.38811746 55.29836826 173.69411809 56 177 C56.58365607 179.85554661 57.16037269 182.71237151 57.73339844 185.57006836 C58.06168833 187.19367598 58.3974308 188.81580816 58.74316406 190.43579102 C63.15990754 211.53253973 61.38779206 232.2187412 49.53125 250.69921875 C49.0259375 251.45847656 48.520625 252.21773437 48 253 C47.5153125 253.79019531 47.030625 254.58039063 46.53125 255.39453125 C42.99411039 260.76609167 42.99411039 260.76609167 38.8125 261.75 C24.9896966 259.03075999 15.54608201 252.08736299 7 241 C6.29298432 239.68761627 5.61084198 238.35981407 5 237 C6.23234375 236.82984375 7.4646875 236.6596875 8.734375 236.484375 C25.67348568 234.17957071 25.67348568 234.17957071 41 227 C41.87822312 224.91466367 41.87822312 224.91466367 42 223 C39.40541172 221.70270586 37.44258641 221.83993601 34.5390625 221.7890625 C33.42660156 221.76070312 32.31414062 221.73234375 31.16796875 221.703125 C28.8451949 221.65190617 26.52226127 221.60739642 24.19921875 221.5703125 C9.56610367 221.16802755 -4.35091285 217.64908715 -15 207 C-23.20746867 197.29327475 -28.98325454 184.5486384 -31 172 C-27.86258816 172.70446516 -24.98877333 173.75889147 -22 174.9375 C-12.56437152 178.3472212 -3.53083011 179.17452999 6.4375 179.25 C7.73482056 179.26401855 7.73482056 179.26401855 9.05834961 179.27832031 C13.47965086 179.25587058 16.98211538 179.07906966 21 177 C16.54582717 174.60691957 12.08744752 173.01936055 7.25 171.625 C-3.19725678 168.4620581 -11.70747967 164.19755726 -20 157 C-21.12921875 156.03126953 -21.12921875 156.03126953 -22.28125 155.04296875 C-32.75779319 145.37369344 -40.24008591 131.51608022 -41.18652344 117.17333984 C-41.74796669 102.44821452 -41.74796669 102.44821452 -41 97 C-40.01 96.01 -40.01 96.01 -39 95 C-38.44054688 95.59425781 -37.88109375 96.18851562 -37.3046875 96.80078125 C-23.20193756 111.37966905 -6.82697932 123.6301931 13 129 C12.53851563 128.58492187 12.07703125 128.16984375 11.6015625 127.7421875 C-6.2724003 110.85729774 -19.38905014 84.86922599 -20.3359375 60.1171875 C-20.66876742 37.22467243 -16.66100441 18.53268543 -1 1 C-0.67 0.67 -0.34 0.34 0 0 Z " fill="#190F2D" transform="translate(41,0)"/>
<path d="M0 0 C12.99805821 10.05824135 19.27475071 27.12698605 21.40625 43.03125 C23.64691493 65.23420245 17.77051419 85.75895291 7 105 C6.44441406 105.99773437 5.88882813 106.99546875 5.31640625 108.0234375 C0.82108613 115.54797814 -4.944194 121.72517751 -11 128 C6.00322861 128 25.0752654 110.01500887 36.1875 98.9375 C37.46359603 97.63011615 38.73654721 96.31960625 40 95 C40.66 95.33 41.32 95.66 42 96 C43.97640666 115.24019976 41.65802575 132.11123644 29.79296875 147.9453125 C27.62683904 150.4263087 25.37890615 152.72363291 23 155 C22.31421875 155.70511719 21.6284375 156.41023437 20.921875 157.13671875 C9.93637521 167.81706577 -4.67129095 171.82970408 -19 176 C-19 176.66 -19 177.32 -19 178 C-4.69515856 182.01243163 15.34390363 179.49841261 28.3984375 172.76953125 C30 172 30 172 32 172 C28.57662585 187.69742295 22.91452839 203.4760969 8.94921875 212.83203125 C7.98435547 213.41017578 7.98435547 213.41017578 7 214 C6.08154297 214.56267578 6.08154297 214.56267578 5.14453125 215.13671875 C-4.69243712 220.59268677 -15.59574448 221.44893435 -26.625 221.625 C-28.92977598 221.67582196 -31.23447497 221.73031288 -33.5390625 221.7890625 C-34.54146973 221.80662598 -35.54387695 221.82418945 -36.57666016 221.84228516 C-39.00987681 221.84319607 -39.00987681 221.84319607 -41 223 C-40.82573443 224.92795223 -40.82573443 224.92795223 -40 227 C-29.97835946 234.41643419 -15.94278561 235.49831838 -4 237 C-9.30546094 248.0932365 -18.53069707 255.80317449 -30 260 C-33.51921438 261.10948128 -36.35179123 261.75765592 -40 261 C-43.18289181 258.90651034 -44.96503997 256.17933664 -47 253 C-48.02287109 251.43572266 -48.02287109 251.43572266 -49.06640625 249.83984375 C-65.66137217 223.35567945 -58.71305091 194.03897718 -52.42138672 165.36279297 C-51.96261524 163.225074 -51.53126232 161.08577376 -51.125 158.9375 C-50.99593262 158.27121582 -50.86686523 157.60493164 -50.73388672 156.91845703 C-49.97584634 152.22296951 -50.06749 147.83494655 -50.38671875 143.08984375 C-51.55657585 123.83543045 -48.08237856 113.70459862 -36.09033203 98.6796875 C-33.0079876 94.72829618 -30.33186177 90.56481149 -27.6875 86.3125 C-27.21070801 85.55453125 -26.73391602 84.7965625 -26.24267578 84.015625 C-9.51308492 57.07416817 -0.51893961 31.77163025 0 0 Z " fill="#190F2D" transform="translate(374,0)"/>
<path d="M0 0 C4.41210423 1.55167261 5.91811309 3.87452306 8.1015625 7.78515625 C8.47909668 8.42122803 8.85663086 9.0572998 9.24560547 9.71264648 C9.99350418 10.97289916 10.73350837 12.23787634 11.46484375 13.5078125 C12.7420542 15.67265955 14.17131588 17.71924446 15.6015625 19.78515625 C17.4765625 23.22265625 17.4765625 23.22265625 17.5390625 25.84765625 C16.4765625 28.22265625 16.4765625 28.22265625 14.4765625 30.97265625 C11.93989134 35.09474688 11.14244644 38.39834631 11.4765625 43.22265625 C12.71850684 47.6658857 14.4572319 50.46408464 18.1640625 53.22265625 C23.07381672 54.7048462 27.63350538 54.92566674 32.625 53.69140625 C35.59623563 51.33447672 35.79278467 47.96516782 36.4765625 44.41015625 C37.76566593 37.81543729 39.17603962 33.46175523 45.02734375 29.4921875 C51.55861551 26.04641046 56.96969692 23.22265625 64.4765625 23.22265625 C63.87554404 30.87345879 62.13555642 37.95971965 60.1015625 45.34765625 C59.79734375 46.48847656 59.493125 47.62929687 59.1796875 48.8046875 C57.63465915 54.48959952 55.99481656 59.89260931 53.4765625 65.22265625 C66.07705116 60.74752362 77.37894535 55.23144625 87.94140625 46.921875 C90.70441944 45.06993241 93.29133954 44.13603168 96.4765625 43.22265625 C98.24362825 54.84696828 97.18447551 67.2093948 90.4765625 77.22265625 C86.47602148 82.51748995 81.81008938 84.06946786 75.4765625 85.22265625 C70.24869862 85.69323753 65.37167036 85.56577886 60.2890625 84.22265625 C48.31248472 81.29267204 36.45841667 82.69296968 25.4765625 88.22265625 C15.54639021 94.2712504 7.04617307 102.36983114 2.4765625 113.22265625 C1.8165625 113.22265625 1.1565625 113.22265625 0.4765625 113.22265625 C-0.78515625 111.31640625 -0.78515625 111.31640625 -2.2109375 108.72265625 C-9.57334103 96.18714904 -19.86129527 87.72777541 -34.07421875 83.8359375 C-40.77799662 82.64398606 -48.18125056 82.29218762 -54.875 83.7265625 C-58.87432804 84.47569917 -62.83814122 84.4475151 -66.8984375 84.47265625 C-67.7234375 84.49328125 -68.5484375 84.51390625 -69.3984375 84.53515625 C-75.64085081 84.57479062 -80.15548419 83.6221423 -85.34375 79.92578125 C-93.46784184 70.87739154 -95.7258894 56.96486652 -95.5234375 45.22265625 C-92.5234375 44.22265625 -92.5234375 44.22265625 -90.71875 45.12109375 C-90.03554687 45.60835937 -89.35234375 46.095625 -88.6484375 46.59765625 C-87.85179688 47.15195313 -87.05515625 47.70625 -86.234375 48.27734375 C-84.31884155 49.65189081 -82.40780502 51.03271498 -80.5 52.41796875 C-72.31475486 58.26457242 -64.14814309 63.01442105 -54.5234375 66.22265625 C-54.91015625 65.23007813 -55.296875 64.2375 -55.6953125 63.21484375 C-60.93792418 49.61339446 -65.07708279 36.90772635 -65.5234375 22.22265625 C-42.06889205 30.6772017 -42.06889205 30.6772017 -37.5234375 35.22265625 C-37.39102608 36.94988967 -37.29266898 38.67978403 -37.2109375 40.41015625 C-36.79839562 45.37355077 -35.93660252 48.41941523 -32.5234375 52.22265625 C-29.51936908 54.58299572 -26.2547749 54.65659289 -22.484375 54.5234375 C-19.11009125 54.00586808 -17.72247375 52.79867014 -15.5234375 50.22265625 C-12.43914092 44.52946218 -12.18773759 39.73665523 -13.69921875 33.5078125 C-14.51650435 30.93581303 -14.51650435 30.93581303 -16.7734375 27.97265625 C-17.3509375 27.06515625 -17.9284375 26.15765625 -18.5234375 25.22265625 C-17.38874785 20.47326662 -15.12898442 16.36327736 -12.7109375 12.16015625 C-12.38029297 11.56138672 -12.04964844 10.96261719 -11.70898438 10.34570312 C-6.02242126 0.38057429 -6.02242126 0.38057429 0 0 Z M-9.5234375 89.22265625 C-6.18263665 95.32376418 -3.22483654 100.15022836 2.4765625 104.22265625 C3.77897152 102.69005401 5.06803762 101.14610798 6.3515625 99.59765625 C7.43050781 98.30988281 7.43050781 98.30988281 8.53125 96.99609375 C10.54736837 94.12170812 11.53892515 91.58828084 12.4765625 88.22265625 C8.80528296 87.07538139 5.30614764 87.05544007 1.4765625 87.03515625 C0.2596875 87.02097656 -0.9571875 87.00679688 -2.2109375 86.9921875 C-5.2953938 87.20679 -6.95017626 87.59506851 -9.5234375 89.22265625 Z " fill="#190F2D" transform="translate(208.5234375,35.77734375)"/>
<path d="M0 0 C5.2558921 0.43081083 7.95598647 2.23001466 11.44921875 6.1484375 C16.26212771 12.23158151 18.09922028 17.47546419 18.125 25.3125 C18.14175781 26.488125 18.15851563 27.66375 18.17578125 28.875 C17.77262479 32.68981381 16.82797126 35.06508964 14.8125 38.3125 C10.45996623 41.21418918 6.9191247 41.08161173 1.8125 40.3125 C-8.18674357 36.85678244 -18.3579504 29.9715992 -23.1875 20.3125 C-23.81332049 17.21990376 -23.79324261 14.41044077 -23.1875 11.3125 C-21.125 8.6875 -21.125 8.6875 -18.1875 7.3125 C-13.35114315 7.39886352 -10.13453146 8.56153868 -6.1875 11.3125 C-6.05472656 10.60222656 -5.92195313 9.89195312 -5.78515625 9.16015625 C-5.60855469 8.24105469 -5.43195313 7.32195312 -5.25 6.375 C-4.98896484 5.00021484 -4.98896484 5.00021484 -4.72265625 3.59765625 C-3.90382835 0.10120136 -3.74165711 0.36682913 0 0 Z " fill="#190F2D" transform="translate(157.1875,309.6875)"/>
<path d="M0 0 C3.00617269 3.00617269 2.59585316 5.82381598 3 10 C4.010625 9.319375 5.02125 8.63875 6.0625 7.9375 C9.08786379 6.20696737 10.06934461 6.00115574 13.75 6.0625 C17.0194564 7.00561242 17.97708197 7.41351243 20 10 C20.98405941 13.86758232 20.71567679 17.52798298 18.96875 21.12109375 C12.32498853 30.58845385 1.4755232 37.68054526 -9.875 40 C-13.54927879 40 -15.11857525 39.22281338 -18 37 C-21.46191385 33.53808615 -21.2039411 29.61731004 -21.3125 24.875 C-21.25205328 17.18963171 -19.20365521 11.6202907 -15.25 5.125 C-11.02741808 1.13700596 -5.84889068 -2.40836675 0 0 Z " fill="#190F2D" transform="translate(267,311)"/>
<path d="M0 0 C4.60853797 0.72008406 8.67237409 2.31295939 13 4 C13 4.66 13 5.32 13 6 C12.34 6.391875 11.68 6.78375 11 7.1875 C8.63576031 8.94360725 8.63576031 8.94360725 8.5 12.4375 C8.75052134 15.97815024 8.75052134 15.97815024 10.5625 18.5 C13.02866158 20.31118285 13.02866158 20.31118285 16.5625 20 C19.96124426 19.27226335 19.96124426 19.27226335 21.9375 17.3125 C23.27148038 14.40913094 23.21536552 12.15869424 23 9 C24.4391134 9.28359887 25.87625518 9.57721399 27.3125 9.875 C28.11300781 10.03742188 28.91351563 10.19984375 29.73828125 10.3671875 C32 11 32 11 35 13 C35.7141853 20.02282208 34.14146433 24.85918565 30.125 30.75 C25.76863161 35.36262535 21.09888285 37.07643735 14.875 37.375 C9.12948475 37.27088028 4.62311074 35.36155001 0 32 C-4.33347822 27.46476065 -6.86331479 22.56906932 -7.171875 16.265625 C-6.68610748 9.86232587 -4.39148381 4.69434476 0 0 Z " fill="#190F2D" transform="translate(159,156)"/>
<path d="M0 0 C4.9387613 6.63646049 6.02571789 12.50533657 5 20.6875 C3.36208627 26.68288232 -0.04141138 30.00429293 -5 33.55859375 C-9.67208711 36.19576792 -14.76345803 36.17482624 -20 35.6875 C-26.78233248 33.53976138 -30.86058311 30.03051613 -34.3125 23.875 C-36.30859327 19.66636962 -36.3289538 16.29285314 -36 11.6875 C-34.5682384 10.98812798 -33.12932968 10.30337282 -31.6875 9.625 C-30.88699219 9.24214844 -30.08648437 8.85929688 -29.26171875 8.46484375 C-27 7.6875 -27 7.6875 -24 8.6875 C-23.896875 9.780625 -23.79375 10.87375 -23.6875 12 C-23.25727508 15.52680332 -23.25727508 15.52680332 -21.8125 17.625 C-19.04411529 19.24784621 -17.14454533 19.13672076 -14 18.6875 C-11.5 17.1875 -11.5 17.1875 -10 14.6875 C-9.33333333 11.6875 -9.33333333 11.6875 -10 8.6875 C-11.91666921 6.43684898 -11.91666921 6.43684898 -14 4.6875 C-14 4.0275 -14 3.3675 -14 2.6875 C-4.12982714 -1.80679937 -4.12982714 -1.80679937 0 0 Z " fill="#190F2D" transform="translate(262,157.3125)"/>
<path d="M0 0 C4.14934228 0.73136051 8.29359825 1.4884662 12.4375 2.25 C13.60216797 2.45496094 14.76683594 2.65992188 15.96679688 2.87109375 C22.17335163 4.02498844 27.5459541 5.32737419 33.08081055 8.4230957 C35.07348035 9.2310152 35.07348035 9.2310152 37.27856445 8.16748047 C38.80497669 7.27193314 40.32600838 6.36719592 41.84375 5.45703125 C46.09227139 3.49577075 50.27077565 2.82296467 54.875 2.125 C56.12482666 1.92765259 56.12482666 1.92765259 57.39990234 1.72631836 C61.28228431 1.17174867 64.19620402 0.85319666 68 2 C60.51064234 7.02059951 52.90454214 11.78170222 45 16.125 C44.29496338 16.52710693 43.58992676 16.92921387 42.86352539 17.34350586 C39.67202606 19.05797277 37.63575302 20.00818215 33.96484375 19.9609375 C30.32292011 18.78055118 26.95447884 17.2536932 23.5625 15.5 C22.87671875 15.15050293 22.1909375 14.80100586 21.484375 14.44091797 C16.40525706 11.8143083 11.42484371 9.02986739 6.5 6.125 C5.84717041 5.74408203 5.19434082 5.36316406 4.52172852 4.97070312 C2.97761443 4.03900748 1.48260933 3.02674956 0 2 C0 1.34 0 0.68 0 0 Z " fill="#190F2D" transform="translate(177,350)"/>
<path d="M0 0 C3.13143808 0.2472188 4.5769416 0.54672314 6.75 2.875 C8.66473159 6.1300437 9.17659863 8.84961401 9.25 12.5625 C9.28867188 13.74005859 9.28867188 13.74005859 9.328125 14.94140625 C9.21984375 15.62074219 9.1115625 16.30007812 9 17 C5.86588698 19.08940868 5.02549528 19.27364412 1.4375 19.25 C0.25994141 19.25773437 0.25994141 19.25773437 -0.94140625 19.265625 C-3 19 -3 19 -5 17 C-5.74090566 12.20995874 -5.82001104 7.55872559 -3.0625 3.4375 C-1 1 -1 1 0 0 Z " fill="#190F2D" transform="translate(208,183)"/>
<path d="M0 0 C0.268125 0.556875 0.53625 1.11375 0.8125 1.6875 C1.204375 2.450625 1.59625 3.21375 2 4 C2.350625 4.845625 2.70125 5.69125 3.0625 6.5625 C5.95011321 10.19530371 9.61674592 10.86972693 14 12 C13 14 13 14 11.2578125 14.67578125 C10.20207031 14.99095703 10.20207031 14.99095703 9.125 15.3125 C6.07351947 16.39141633 5.16312185 16.7879416 3.125 19.4375 C2.75375 20.283125 2.3825 21.12875 2 22 C1.3381686 23.33574002 0.67231035 24.66950347 0 26 C-0.11214844 25.38511719 -0.22429687 24.77023438 -0.33984375 24.13671875 C-0.98474047 21.4939067 -1.64099615 19.36458254 -3 17 C-5.3435573 15.70787652 -7.4309592 15.10488755 -10.0390625 14.53515625 C-11.00972656 14.27025391 -11.00972656 14.27025391 -12 14 C-12.33 13.34 -12.66 12.68 -13 12 C-11.9275 11.7525 -10.855 11.505 -9.75 11.25 C-5.89640788 9.96546929 -4.39884474 9.19845965 -2 6 C-0.73215876 2.86649283 -0.73215876 2.86649283 0 0 Z " fill="#190F2D" transform="translate(281,33)"/>
<path d="M0 0 C2 3 2 3 2.5 6 C3.6820322 9.15542707 3.6820322 9.15542707 6.3515625 10.0546875 C8.8887433 10.80512126 11.41128992 11.45551116 14 12 C12 14 12 14 8.5625 15.3125 C4.66116157 17.16050241 3.77052251 18.17939879 2 22 C1.33623135 23.33477841 0.6700572 24.66836733 0 26 C-0.18433594 25.39671875 -0.36867188 24.7934375 -0.55859375 24.171875 C-2.39264254 19.09310418 -2.39264254 19.09310418 -6.26953125 15.51171875 C-8.49123381 14.5495641 -10.68534217 13.70725656 -13 13 C-13 12.67 -13 12.34 -13 12 C-11.9275 11.7525 -10.855 11.505 -9.75 11.25 C-5.89640788 9.96546929 -4.39884474 9.19845965 -2 6 C-0.73215876 2.86649283 -0.73215876 2.86649283 0 0 Z " fill="#190F2D" transform="translate(310,335)"/>
<path d="M0 0 C2 2 2 2 3.3125 4.9375 C5.20516634 8.37233891 6.53211966 9.30835105 10 11 C11.33381538 11.66570171 12.66723308 12.33220171 14 13 C13.39671875 13.18433594 12.7934375 13.36867188 12.171875 13.55859375 C7.09310418 15.39264254 7.09310418 15.39264254 3.51171875 19.26953125 C2.5495641 21.49123381 1.70725656 23.68534217 1 26 C-0.0851103 23.84801655 -1.13573113 21.69837527 -2.125 19.5 C-4.75702297 15.99063604 -8.02865993 14.68852701 -12 13 C-9.75827511 11.82440329 -7.92695608 10.98396597 -5.4375 10.4375 C-1.91978416 8.36294963 -1.56734868 5.7055197 -0.48046875 1.8984375 C-0.32191406 1.27195312 -0.16335937 0.64546875 0 0 Z " fill="#190F2D" transform="translate(134,356)"/>
<path d="M0 0 C1.33663454 2.0049518 2.64919943 4.02615394 3.9375 6.0625 C6.23612044 9.33629275 7.77497433 10.71511031 11.6875 11.625 C12.450625 11.74875 13.21375 11.8725 14 12 C12 14 12 14 8.625 15.0625 C5.07278503 16.47152055 4.07496952 18.22887794 2.5625 21.6875 C2.01791838 23.11617228 1.48895812 24.55134767 1 26 C0.70480469 25.40316406 0.40960938 24.80632812 0.10546875 24.19140625 C-3.06980845 17.89695216 -5.43370555 15.27294808 -12 13 C-9.76937006 11.84337707 -7.90933227 10.98009733 -5.4375 10.4375 C-1.91978416 8.36294963 -1.56734868 5.7055197 -0.48046875 1.8984375 C-0.32191406 1.27195313 -0.16335937 0.64546875 0 0 Z " fill="#190F2D" transform="translate(105,54)"/>
<path d="M0 0 C0.66 0 1.32 0 2 0 C2.3403125 1.1446875 2.3403125 1.1446875 2.6875 2.3125 C4.28367034 5.58084879 5.83319161 6.3374256 9 8 C9.66 8.66 10.32 9.32 11 10 C9.3603125 10.556875 9.3603125 10.556875 7.6875 11.125 C4.45411511 12.4798799 4.01423545 12.97658038 2.0625 16.1875 C1.5365625 17.5796875 1.5365625 17.5796875 1 19 C0.7525 18.4225 0.505 17.845 0.25 17.25 C-1.97636479 13.24254337 -4.80471463 10.79797945 -9 9 C-8.05125 8.54625 -7.1025 8.0925 -6.125 7.625 C-2.99686321 6.19761746 -2.99686321 6.19761746 -1 4 C-0.3574765 1.93125966 -0.3574765 1.93125966 0 0 Z " fill="#190F2D" transform="translate(313,65)"/>
<path d="M0 0 C1.20628008 2.33214148 2.1654738 4.49642139 3 7 C6.51190809 8.22969878 6.51190809 8.22969878 10 9 C9.01 9.66 8.02 10.32 7 11 C3.73105302 13.39191242 1.49833481 15.18605685 0 19 C-0.37125 18.071875 -0.7425 17.14375 -1.125 16.1875 C-3.30942959 12.4739697 -5.06718759 11.57312496 -9 10 C-8.01 9.34 -7.02 8.68 -6 8 C-3.28686709 5.53351554 -1.44796288 3.37858005 0 0 Z " fill="#190F2D" transform="translate(102,331)"/>
</svg>
